<?xml version="1.0" encoding="utf-8"?>
<!-- Generator: Adobe Illustrator 25.1.0, SVG Export Plug-In . SVG Version: 6.00 Build 0)  -->
<svg version="1.1" id="Capa_1" xmlns="http://www.w3.org/2000/svg" xmlns:xlink="http://www.w3.org/1999/xlink" x="0px" y="0px"
	 viewBox="0 0 93.5 93.5" style="enable-background:new 0 0 93.5 93.5;" xml:space="preserve">
<style type="text/css">
	.st0{fill:#F4A8B0;}
</style>
<g>
	<g>
		<path class="st0" d="M49.1,20.1l-0.3,1.1c-1.6,5.2-13.5,54.5-14.4,58.5c-0.2,0.6-1.7,4.4-4.4,4.4c-4.5,0-6.5-6.5-6.5-6.5
			c-0.7-2.5-3.3-3.9-5.8-3.2c-2.5,0.7-3.9,3.3-3.2,5.8c1.4,4.9,6.3,13.4,15.5,13.4c8,0,12.2-7.1,13.4-11.2c0-0.1,0.1-0.2,0.1-0.2
			c4.4-18.3,13.1-54.1,14.3-58.2l0.3-1.1c1-3.3,3.9-13.3,7.7-13.3c3.4,0,3.9,5.7,3.9,5.9c0.2,2.6,2.4,4.5,5.1,4.3
			c2.6-0.2,4.5-2.5,4.3-5.1C78.8,9.5,75.5,0,65.9,0C55,0,51,13.6,49.1,20.1z"/>
	</g>
</g>
</svg>
